<mxfile host="app.diagrams.net" modified="2023-04-15T05:06:11.959Z" agent="Mozilla/5.0 (Windows NT 10.0; Win64; x64) AppleWebKit/537.36 (KHTML, like Gecko) Chrome/112.0.0.0 Safari/537.36" version="21.1.8" etag="he7HE6tZVnUQ5ntLhmkS" type="github">
  <diagram name="Страница 1" id="751aA3EUAvuj3y4BBLCX">
    <mxGraphModel>
      <root>
        <mxCell id="0" />
        <mxCell id="1" parent="0" />
      </root>
    </mxGraphModel>
  </diagram>
</mxfile>
